<svg width="65" height="65" viewBox="0 0 65 65" fill="none" xmlns="http://www.w3.org/2000/svg">
<g clip-path="url(#clip0_797_3)">
<rect width="65" height="65" rx="13.5417" fill="#010102"/>
<g filter="url(#filter0_f_797_3)">
<rect x="25.1004" width="27.0833" height="8.125" transform="rotate(25 25.1004 0)" fill="#0232AB"/>
</g>
<g filter="url(#filter1_f_797_3)">
<rect x="10.8333" y="35.2083" width="37.9167" height="8.125" fill="#0232AB"/>
</g>
<path d="M13.9611 27.7101V25.8231H20.0803V30.9583H18.0585L17.8024 29.597C17.0072 30.527 15.7672 31.0931 13.7859 31.0931C10.3085 31.0931 8.25978 29.5162 8.25978 26.2274C8.25978 22.9522 10.3085 21.3887 14.1902 21.3887C17.9642 21.3887 19.932 22.7096 20.0803 25.284H16.495C16.3603 24.7987 15.6729 24.354 14.1902 24.354C12.1146 24.354 11.7641 25.23 11.7641 26.3622C11.7641 27.5079 12.1281 28.5322 14.1902 28.5322C15.5381 28.5322 16.3603 28.3435 16.495 27.7101H13.9611ZM31.5161 25.1357C31.5161 26.5105 30.8826 27.6427 29.8448 28.2492L31.5161 30.9583H27.3648L26.0574 28.7479H23.9952V30.9583H20.4908V21.5235H27.9039C30.047 21.5235 31.5161 23.0331 31.5161 25.1357ZM23.9952 24.4887V25.7827H27.23C27.5804 25.7827 28.0118 25.7827 28.0118 25.1357C28.0118 24.4887 27.5804 24.4887 27.23 24.4887H23.9952ZM40.9463 30.9583L40.2994 29.2601H36.2828L35.6359 30.9583H31.7811L35.6898 21.5235H40.8924L44.8011 30.9583H40.9463ZM37.1993 26.834H39.3828L38.2911 23.9496L37.1993 26.834ZM52.087 21.5235C54.3648 21.5235 56.5079 23.0331 56.5079 26.2409C56.5079 29.4488 54.3648 30.9583 52.087 30.9583H45.0783V21.5235H52.087ZM51.0087 27.9931C51.7635 27.9931 53.0035 27.9931 53.0035 26.2409C53.0035 24.4887 51.7635 24.4887 51.0087 24.4887H48.5826V27.9931H51.0087Z" fill="#0290FF"/>
<mask id="path-5-outside-1_797_3" maskUnits="userSpaceOnUse" x="7.125" y="33.9583" width="51" height="11" fill="black">
<rect fill="white" x="7.125" y="33.9583" width="51" height="11"/>
<path d="M13.9611 40.71V38.8231H20.0803V43.9583H18.0585L17.8024 42.597C17.0072 43.527 15.7672 44.0931 13.7859 44.0931C10.3085 44.0931 8.25978 42.5161 8.25978 39.2274C8.25978 35.9522 10.3085 34.3887 14.1902 34.3887C17.9642 34.3887 19.932 35.7096 20.0803 38.2839H16.495C16.3603 37.7987 15.6729 37.3539 14.1902 37.3539C12.1146 37.3539 11.7641 38.23 11.7641 39.3622C11.7641 40.5078 12.1281 41.5322 14.1902 41.5322C15.5381 41.5322 16.3603 41.3435 16.495 40.71H13.9611ZM31.0039 37.2191H24.5343V38.0952H31.0039V40.3865H24.5343V41.2626H31.0039V43.9583H21.03V34.5235H31.0039V37.2191ZM40.9716 43.9583L40.3246 42.26H36.3081L35.6611 43.9583H31.8063L35.715 34.5235H40.9177L44.8264 43.9583H40.9716ZM37.2246 39.8339H39.4081L38.3164 36.9496L37.2246 39.8339ZM56.668 38.1357C56.668 39.5104 56.0345 40.6426 54.9966 41.2492L56.668 43.9583H52.5166L51.2092 41.7479H49.147V43.9583H45.6427V34.5235H53.0558C55.1988 34.5235 56.668 36.033 56.668 38.1357ZM49.147 37.4887V38.7826H52.3818C52.7323 38.7826 53.1636 38.7826 53.1636 38.1357C53.1636 37.4887 52.7323 37.4887 52.3818 37.4887H49.147Z"/>
</mask>
<path d="M13.9611 40.71H13.6852V40.9859H13.9611V40.71ZM13.9611 38.8231V38.5472H13.6852V38.8231H13.9611ZM20.0803 38.8231H20.3562V38.5472H20.0803V38.8231ZM20.0803 43.9583V44.2342H20.3562V43.9583H20.0803ZM18.0585 43.9583L17.7874 44.0093L17.8297 44.2342H18.0585V43.9583ZM17.8024 42.597L18.0736 42.546L17.9671 41.98L17.5928 42.4177L17.8024 42.597ZM20.0803 38.2839V38.5598H20.3725L20.3557 38.2681L20.0803 38.2839ZM16.495 38.2839L16.2292 38.3578L16.2854 38.5598H16.495V38.2839ZM16.495 40.71L16.7649 40.7674L16.8358 40.4341H16.495V40.71ZM14.237 40.71V38.8231H13.6852V40.71H14.237ZM13.9611 39.0989H20.0803V38.5472H13.9611V39.0989ZM19.8044 38.8231V43.9583H20.3562V38.8231H19.8044ZM20.0803 43.6824H18.0585V44.2342H20.0803V43.6824ZM18.3296 43.9073L18.0736 42.546L17.5313 42.648L17.7874 44.0093L18.3296 43.9073ZM17.5928 42.4177C16.8642 43.2697 15.7114 43.8172 13.7859 43.8172V44.369C15.823 44.369 17.1502 43.7842 18.0121 42.7763L17.5928 42.4177ZM13.7859 43.8172C12.0837 43.8172 10.7761 43.4306 9.89755 42.6834C9.02671 41.9427 8.53566 40.8119 8.53566 39.2274H7.98391C7.98391 40.9316 8.5172 42.2337 9.54008 43.1037C10.5552 43.967 12.0107 44.369 13.7859 44.369V43.8172ZM8.53566 39.2274C8.53566 37.6507 9.02576 36.5302 9.942 35.795C10.8698 35.0506 12.2792 34.6646 14.1902 34.6646V34.1128C12.2195 34.1128 10.6637 34.5085 9.59671 35.3647C8.51816 36.23 7.98391 37.5289 7.98391 39.2274H8.53566ZM14.1902 34.6646C16.0521 34.6646 17.4247 34.9916 18.3423 35.6008C19.2445 36.1997 19.7352 37.0897 19.8049 38.2998L20.3557 38.2681C20.2771 36.9038 19.7097 35.8462 18.6475 35.1411C17.6007 34.4462 16.1023 34.1128 14.1902 34.1128V34.6646ZM20.0803 38.008H16.495V38.5598H20.0803V38.008ZM16.7609 38.2101C16.6652 37.8659 16.3858 37.5804 15.9633 37.3863C15.5412 37.1924 14.9557 37.078 14.1902 37.078V37.6298C14.9074 37.6298 15.4069 37.7378 15.7329 37.8876C16.0585 38.0372 16.1901 38.2168 16.2292 38.3578L16.7609 38.2101ZM14.1902 37.078C13.124 37.078 12.4244 37.3014 12.0001 37.7422C11.5757 38.183 11.4883 38.7788 11.4883 39.3622H12.04C12.04 38.8134 12.1278 38.405 12.3976 38.1248C12.6674 37.8445 13.1808 37.6298 14.1902 37.6298V37.078ZM11.4883 39.3622C11.4883 39.9541 11.5799 40.5817 11.9961 41.0583C12.4184 41.5418 13.1187 41.8081 14.1902 41.8081V41.2563C13.1997 41.2563 12.6868 41.0104 12.4117 40.6953C12.1304 40.3733 12.04 39.916 12.04 39.3622H11.4883ZM14.1902 41.8081C14.8694 41.8081 15.4483 41.7615 15.8824 41.6212C16.3245 41.4783 16.6691 41.2178 16.7649 40.7674L16.2252 40.6526C16.1862 40.8358 16.0524 40.9864 15.7127 41.0962C15.3651 41.2085 14.8589 41.2563 14.1902 41.2563V41.8081ZM16.495 40.4341H13.9611V40.9859H16.495V40.4341ZM31.0039 37.2191V37.495H31.2798V37.2191H31.0039ZM24.5343 37.2191V36.9433H24.2585V37.2191H24.5343ZM24.5343 38.0952H24.2585V38.3711H24.5343V38.0952ZM31.0039 38.0952H31.2798V37.8194H31.0039V38.0952ZM31.0039 40.3865V40.6624H31.2798V40.3865H31.0039ZM24.5343 40.3865V40.1107H24.2585V40.3865H24.5343ZM24.5343 41.2626H24.2585V41.5385H24.5343V41.2626ZM31.0039 41.2626H31.2798V40.9868H31.0039V41.2626ZM31.0039 43.9583V44.2342H31.2798V43.9583H31.0039ZM21.03 43.9583H20.7541V44.2342H21.03V43.9583ZM21.03 34.5235V34.2476H20.7541V34.5235H21.03ZM31.0039 34.5235H31.2798V34.2476H31.0039V34.5235ZM31.0039 36.9433H24.5343V37.495H31.0039V36.9433ZM24.2585 37.2191V38.0952H24.8102V37.2191H24.2585ZM24.5343 38.3711H31.0039V37.8194H24.5343V38.3711ZM30.7281 38.0952V40.3865H31.2798V38.0952H30.7281ZM31.0039 40.1107H24.5343V40.6624H31.0039V40.1107ZM24.2585 40.3865V41.2626H24.8102V40.3865H24.2585ZM24.5343 41.5385H31.0039V40.9868H24.5343V41.5385ZM30.7281 41.2626V43.9583H31.2798V41.2626H30.7281ZM31.0039 43.6824H21.03V44.2342H31.0039V43.6824ZM21.3058 43.9583V34.5235H20.7541V43.9583H21.3058ZM21.03 34.7993H31.0039V34.2476H21.03V34.7993ZM30.7281 34.5235V37.2191H31.2798V34.5235H30.7281ZM40.9716 43.9583L40.7138 44.0565L40.7815 44.2342H40.9716V43.9583ZM40.3246 42.26L40.5824 42.1618L40.5147 41.9842H40.3246V42.26ZM36.3081 42.26V41.9842H36.118L36.0503 42.1618L36.3081 42.26ZM35.6611 43.9583V44.2342H35.8512L35.9189 44.0565L35.6611 43.9583ZM31.8063 43.9583L31.5515 43.8527L31.3934 44.2342H31.8063V43.9583ZM35.715 34.5235V34.2476H35.5307L35.4602 34.4179L35.715 34.5235ZM40.9177 34.5235L41.1725 34.4179L41.102 34.2476H40.9177V34.5235ZM44.8264 43.9583V44.2342H45.2393L45.0813 43.8527L44.8264 43.9583ZM37.2246 39.8339L36.9666 39.7363L36.8252 40.1098H37.2246V39.8339ZM39.4081 39.8339V40.1098H39.8075L39.6661 39.7363L39.4081 39.8339ZM38.3164 36.9496L38.5744 36.8519L38.3164 36.1703L38.0584 36.8519L38.3164 36.9496ZM41.2294 43.8601L40.5824 42.1618L40.0668 42.3582L40.7138 44.0565L41.2294 43.8601ZM40.3246 41.9842H36.3081V42.5359H40.3246V41.9842ZM36.0503 42.1618L35.4033 43.8601L35.9189 44.0565L36.5659 42.3582L36.0503 42.1618ZM35.6611 43.6824H31.8063V44.2342H35.6611V43.6824ZM32.0612 44.0639L35.9699 34.6291L35.4602 34.4179L31.5515 43.8527L32.0612 44.0639ZM35.715 34.7993H40.9177V34.2476H35.715V34.7993ZM40.6628 34.6291L44.5715 44.0639L45.0813 43.8527L41.1725 34.4179L40.6628 34.6291ZM44.8264 43.6824H40.9716V44.2342H44.8264V43.6824ZM37.2246 40.1098H39.4081V39.5581H37.2246V40.1098ZM39.6661 39.7363L38.5744 36.8519L38.0584 37.0472L39.1501 39.9316L39.6661 39.7363ZM38.0584 36.8519L36.9666 39.7363L37.4826 39.9316L38.5744 37.0472L38.0584 36.8519ZM54.9966 41.2492L54.8574 41.011L54.6135 41.1535L54.7618 41.394L54.9966 41.2492ZM56.6679 43.9583V44.2342H57.1623L56.9027 43.8135L56.6679 43.9583ZM52.5166 43.9583L52.2792 44.0987L52.3593 44.2342H52.5166V43.9583ZM51.2092 41.7479L51.4467 41.6074L51.3666 41.472H51.2092V41.7479ZM49.147 41.7479V41.472H48.8712V41.7479H49.147ZM49.147 43.9583V44.2342H49.4229V43.9583H49.147ZM45.6427 43.9583H45.3668V44.2342H45.6427V43.9583ZM45.6427 34.5235V34.2476H45.3668V34.5235H45.6427ZM49.147 37.4887V37.2128H48.8712V37.4887H49.147ZM49.147 38.7826H48.8712V39.0585H49.147V38.7826ZM56.3921 38.1357C56.3921 39.4226 55.8022 40.4589 54.8574 41.011L55.1358 41.4873C56.2668 40.8264 56.9438 39.5983 56.9438 38.1357H56.3921ZM54.7618 41.394L56.4332 44.1031L56.9027 43.8135L55.2314 41.1043L54.7618 41.394ZM56.6679 43.6824H52.5166V44.2342H56.6679V43.6824ZM52.7541 43.8179L51.4467 41.6074L50.9718 41.8883L52.2792 44.0987L52.7541 43.8179ZM51.2092 41.472H49.147V42.0237H51.2092V41.472ZM48.8712 41.7479V43.9583H49.4229V41.7479H48.8712ZM49.147 43.6824H45.6427V44.2342H49.147V43.6824ZM45.9185 43.9583V34.5235H45.3668V43.9583H45.9185ZM45.6427 34.7993H53.0558V34.2476H45.6427V34.7993ZM53.0558 34.7993C54.0605 34.7993 54.8909 35.152 55.4697 35.7354C56.0488 36.3191 56.3921 37.15 56.3921 38.1357H56.9438C56.9438 37.0187 56.5526 36.0435 55.8613 35.3468C55.1698 34.6497 54.1941 34.2476 53.0558 34.2476V34.7993ZM48.8712 37.4887V38.7826H49.4229V37.4887H48.8712ZM49.147 39.0585H52.3818V38.5067H49.147V39.0585ZM52.3818 39.0585C52.5388 39.0585 52.8099 39.0647 53.0339 38.9452C53.1569 38.8796 53.264 38.7787 53.337 38.634C53.4079 38.4936 53.4395 38.3265 53.4395 38.1357H52.8877C52.8877 38.2683 52.8654 38.3438 52.8444 38.3854C52.8256 38.4226 52.803 38.443 52.7743 38.4583C52.6951 38.5006 52.5753 38.5067 52.3818 38.5067V39.0585ZM53.4395 38.1357C53.4395 37.9449 53.4079 37.7778 53.337 37.6373C53.264 37.4926 53.1569 37.3917 53.0339 37.3262C52.8099 37.2066 52.5388 37.2128 52.3818 37.2128V37.7646C52.5753 37.7646 52.6951 37.7708 52.7743 37.813C52.803 37.8283 52.8256 37.8487 52.8444 37.8859C52.8654 37.9275 52.8877 38.003 52.8877 38.1357H53.4395ZM52.3818 37.2128H49.147V37.7646H52.3818V37.2128Z" fill="white" mask="url(#path-5-outside-1_797_3)"/>
</g>
<defs>
<filter id="filter0_f_797_3" x="6.22916" y="-15.4375" width="58.8546" height="49.6847" filterUnits="userSpaceOnUse" color-interpolation-filters="sRGB">
<feFlood flood-opacity="0" result="BackgroundImageFix"/>
<feBlend mode="normal" in="SourceGraphic" in2="BackgroundImageFix" result="shape"/>
<feGaussianBlur stdDeviation="7.71875" result="effect1_foregroundBlur_797_3"/>
</filter>
<filter id="filter1_f_797_3" x="-4.60416" y="19.7708" width="68.7917" height="39" filterUnits="userSpaceOnUse" color-interpolation-filters="sRGB">
<feFlood flood-opacity="0" result="BackgroundImageFix"/>
<feBlend mode="normal" in="SourceGraphic" in2="BackgroundImageFix" result="shape"/>
<feGaussianBlur stdDeviation="7.71875" result="effect1_foregroundBlur_797_3"/>
</filter>
<clipPath id="clip0_797_3">
<rect width="65" height="65" rx="13.5417" fill="white"/>
</clipPath>
</defs>
</svg>
