<svg width="139" height="33" viewBox="0 0 139 33" fill="none" xmlns="http://www.w3.org/2000/svg">
<path d="M138.189 1.45562C137.701 0.810583 137.212 0.325371 134.768 0.165538C134.119 0.165538 132.164 0 128.742 0C119.773 0 113.586 2.75141 110.487 8.0887C111.303 2.75141 106.088 0 94.6803 0C81.3176 0 72.8424 5.33728 69.4212 16.1774C68.1217 20.2246 68.1217 23.4612 69.0992 26.0528H65.839C63.3954 26.2069 60.1352 26.3725 58.0192 26.3725C53.1319 26.3725 50.0269 25.5619 48.8885 23.9464C47.911 22.4908 47.911 19.7394 49.2162 15.6922C51.3322 9.05911 56.3863 6.14786 64.5338 6.14786C68.7715 6.14786 72.8424 6.63307 72.8424 6.63307C73.3311 6.63307 73.6589 5.98803 73.6589 5.50282L73.4979 5.01762L73.1701 2.75141C73.0091 1.29579 71.8649 0.485204 69.9099 0.165538C68.1217 -3.82773e-06 66.6498 0 64.6948 0H64.5338C53.9426 0 46.4448 3.562 42.3739 10.3549C43.8401 3.39645 38.947 0 27.706 0C21.3524 0 16.7813 0.165542 14.1766 0.485208C12.0607 0.810582 10.7554 1.62116 10.2667 3.07678L9.28924 5.98803C9.12824 6.47324 9.45598 6.79861 10.1057 6.79861C10.5945 6.79861 12.5494 6.47324 15.8096 6.3077C19.0078 6.03945 22.2142 5.87762 25.4233 5.82249C31.6159 5.82249 34.3873 7.44366 33.4099 10.5147C33.2431 11.1655 32.7544 11.6507 31.9437 11.8105C26.0788 12.7809 21.3524 13.4317 17.9255 13.9169C8.15076 15.207 2.44691 18.1182 0.980697 22.976C-1.141 29.6091 4.07412 32.84 16.6203 32.84C22.8186 32.84 28.1948 32.5203 32.4324 31.7097C34.8761 31.2245 36.1813 30.7393 36.67 29.1239L38.947 21.6802C38.786 29.1239 43.8344 32.84 54.5923 32.84C59.1577 32.84 63.5564 32.6802 65.6723 32.3548C67.794 32.0351 68.9325 31.5499 69.4212 29.9287L69.9099 27.6683C72.1926 31.2245 77.2468 33.0055 84.9056 33.0055C93.0531 33.0055 97.7795 32.84 99.0789 32.3548C99.5508 32.2511 99.9903 32.0355 100.36 31.7263C100.729 31.4171 101.018 31.0236 101.201 30.5795L101.362 30.0943L102.339 27.0175C102.506 26.5323 102.178 26.2069 101.523 26.2069L96.3133 26.5323C92.8864 26.6978 90.1207 26.8577 88.16 26.8577C84.4168 26.8577 81.9731 26.5323 80.5012 26.0471C78.3852 25.2365 77.4078 23.7809 77.5687 21.3548L94.0306 19.2542C101.362 18.2838 106.416 16.0176 108.859 12.4613L103.156 31.3844C102.995 31.7097 103.156 32.0351 103.317 32.195C103.483 32.3548 103.805 32.5203 104.461 32.5203H111.303C112.442 32.5203 112.93 31.8696 113.097 31.3844L119.123 10.5147C119.939 7.76903 122.383 6.47324 126.943 6.47324C131.025 6.47324 133.958 6.47324 135.913 6.63307H136.074C136.401 6.63307 137.051 6.47324 137.54 5.66266L138.517 2.75141C138.517 2.2662 138.517 1.781 138.189 1.45562ZM28.3557 26.3782C26.2398 26.7035 23.1406 26.8634 19.2307 26.8634C12.2217 26.8634 9.28924 25.4078 10.1057 22.6563C10.7554 20.7155 12.5494 19.4197 15.4818 19.0943L31.2939 16.9937L28.3557 26.3782ZM101.201 9.53861C100.549 11.6431 97.4517 13.1006 91.9089 13.9112L78.713 15.6865L79.035 14.5562C80.1792 10.9942 81.6454 8.73373 83.6003 7.43794C85.5553 6.14406 88.8135 5.49711 93.3751 5.49711C99.4124 5.65695 102.023 6.95274 101.201 9.53861Z" fill="white"/>
</svg>
