<svg width="153" height="32" viewBox="0 0 153 32" fill="none" xmlns="http://www.w3.org/2000/svg">
<path d="M151.813 7.96525V0H122.306C116.146 0 113.37 3.775 112.914 7.43675V7.55V0H104.244V7.96525H112.876H151.813ZM112.876 10.8343L104.206 10.3435V19.5167C104.206 22.3857 102.761 23.254 97.7419 23.254H90.8214C86.6767 23.254 84.9276 22.0837 84.9276 19.5167V9.47525L76.1439 8.8335V20.234H75.9538C75.4594 16.912 74.2046 13.0615 65.8392 12.4953L38.3474 10.6833C38.3474 14.8735 41.3513 17.365 46.0664 17.8557L65.2308 19.781C66.7518 19.8943 67.8545 20.3473 67.8545 21.593C67.8545 22.952 66.7138 23.103 64.9646 23.103H38.0052V10.6833L29.2215 10.117V31.1815H65.0027C72.9878 31.1815 75.5355 27.0667 75.9157 23.6315H76.1059C77.0945 29.0675 81.8856 31.1815 89.9848 31.1815H98.9206C108.389 31.1815 112.876 28.3125 112.876 21.593V10.8343ZM140.748 12.4575L113.256 10.8343C113.256 15.0245 116.032 17.818 120.747 18.1955L140.329 19.7055C141.85 19.8188 142.763 20.1963 142.763 21.442C142.763 22.6123 141.698 23.0652 139.493 23.0652H112.8V31.1815H140.063C148.657 31.1815 152.421 28.1992 152.421 21.4042C152.421 15.2887 149.037 12.986 140.748 12.4575ZM76.1439 0H84.9276V7.96525H76.1439V0ZM24.3923 9.7395L14.8482 8.79575L0.322754 31.1815H11.0077L24.3923 9.7395ZM74.5468 0H47.7395C41.5034 0 38.7657 3.8505 38.1192 7.55V0H23.2516C21.1603 0 20.1716 0.64175 19.183 2.07625L15.0763 7.96525H74.5468V0Z" fill="white"/>
</svg>
