<svg width="67" height="67" viewBox="0 0 67 67" fill="none" xmlns="http://www.w3.org/2000/svg">
<g clip-path="url(#clip0_582_363)">
<path d="M33.5195 67H32.5229L39.3876 48.1702H48.8235C50.4705 48.1702 52.274 46.9028 52.849 45.3311L60.2888 24.9296C61.5172 21.5908 59.5993 18.8689 56.0315 18.8689H42.9163L31.945 49.0133L25.7336 66.1178C18.4016 64.373 11.8726 60.2057 7.20267 54.29C2.53277 48.3744 -0.00494535 41.0563 7.23534e-06 33.5195C7.23534e-06 18.1403 10.3571 5.17854 24.469 1.22833L18.0621 18.8689L7.39792 48.1702H14.4943L23.584 23.2797H28.9161L19.8264 48.1702H26.92L35.3565 24.9296C36.5848 21.5935 34.6669 18.8717 31.0992 18.8717H25.1194L31.9869 0.0390833C32.481 0 32.9808 0 33.4777 0C52.0032 0 67 14.9968 67 33.5195C67.0391 52.006 52.0423 67 33.5195 67ZM53.8066 23.2406H48.4745L40.9984 43.7203H46.3305L53.8066 23.2406Z" fill="white"/>
</g>
<defs>
<clipPath id="clip0_582_363">
<rect width="67" height="67" fill="white"/>
</clipPath>
</defs>
</svg>
