<svg width="135" height="45" viewBox="0 0 135 45" fill="none" xmlns="http://www.w3.org/2000/svg">
<path d="M118.175 23.7793C118.175 26.5501 116.26 28.5839 113.626 28.5839C111.036 28.5839 109.009 26.4781 109.009 23.7793C109.009 20.953 110.924 18.9691 113.559 18.9691C116.149 18.9691 118.175 21.0805 118.175 23.7793ZM38.3246 18.681C37.6265 18.6585 36.933 18.8011 36.3012 19.0969C35.6694 19.3927 35.1174 19.8332 34.6908 20.3823C33.8427 21.5677 33.4979 23.0365 33.7307 24.472L41.9864 21.0694C41.6793 20.359 41.1683 19.7542 40.5171 19.3304C39.8658 18.9066 39.1033 18.6826 38.3246 18.6865V18.681ZM77.192 18.9691C74.5573 18.9691 72.6371 20.953 72.6371 23.7793C72.6371 26.4725 74.6689 28.5839 77.259 28.5839C79.8937 28.5839 81.8083 26.5446 81.8083 23.7793C81.8083 21.0805 79.782 18.9691 77.192 18.9691ZM134.675 0V44.3666H0.707642V0H134.675ZM28.6734 28.002H17.9448V10.1302H13.1555V32.3135H28.6734V28.002ZM35.0201 27.4811L47.0939 22.5103C46.8773 20.7586 46.1607 19.105 45.0286 17.7444C43.4433 15.9157 41.0989 14.9459 38.2409 14.9459C33.0441 14.9459 29.1255 18.7475 29.1255 23.7737C29.1255 28.9275 33.0552 32.6016 38.76 32.6016C41.9529 32.6016 45.224 31.0943 46.7534 29.3376L43.7671 27.06C41.7743 28.523 40.6411 28.8665 38.827 28.8665C37.1971 28.8665 35.9244 28.3678 35.0201 27.4811ZM66.1117 21.7233C66.1117 17.7943 63.2817 14.9459 59.1231 14.9459C58.0402 14.9503 56.9725 15.199 56.0006 15.6733C55.0287 16.1475 54.1782 16.8349 53.5132 17.6835V15.234H48.7908V32.3079H53.5132V22.5934C53.5132 20.8422 54.8808 18.9858 57.4094 18.9858C59.3631 18.9858 61.3838 20.3324 61.3838 22.5934V32.3079H66.1117V21.7233ZM86.4692 23.7737C86.4692 18.7641 82.4223 14.9459 77.259 14.9459C72.051 14.9459 67.9761 18.825 67.9761 23.7737C67.9761 28.7779 72.0286 32.5961 77.192 32.5961C82.3944 32.5961 86.4692 28.7169 86.4692 23.7737ZM98.0016 32.3079L105.08 15.234H99.6818L95.4116 26.866L91.1413 15.2285H85.7492L92.8271 32.3024L98.0016 32.3079ZM122.836 23.7737C122.836 18.7641 118.789 14.9459 113.626 14.9459C108.423 14.9459 104.348 18.825 104.348 23.7737C104.348 28.7779 108.395 32.5961 113.559 32.5961C118.761 32.5961 122.836 28.7169 122.836 23.7737Z" fill="white"/>
</svg>
