<svg width="128" height="37" viewBox="0 0 128 37" fill="none" xmlns="http://www.w3.org/2000/svg">
<path d="M80.6245 11.949L100.614 24.633H86.5315L66.5421 11.949H80.6245ZM30.0747 0L27.7585 8.5365L26.833 11.949L23.3851 24.633L22.4597 28.0455L20.1488 36.561H30.0324L32.3433 28.0455L33.2688 24.633L36.7114 11.949L37.6368 8.5365L39.953 0H30.0747ZM62.1212 28.0455L59.8102 36.561H85.9709L99.4188 28.0455H62.1212ZM80.926 0L67.4517 8.5365H104.924L107.24 0H80.926ZM117.203 0L114.887 8.5365L113.961 11.949L110.519 24.633L109.593 28.0455L107.282 36.561H117.166L119.477 28.0455L120.402 24.633L123.845 11.949L124.77 8.5365L127.081 0H117.203ZM10.0906 0L7.77438 8.5365L6.84895 11.949L3.40634 24.633L2.4809 28.0455L0.164673 36.561H10.0483L12.3592 28.0455L13.2847 24.633L16.7273 11.949L17.6527 8.5365L19.969 0H10.0906ZM49.9424 0L47.6262 8.5365L46.7008 11.949L43.2582 24.633L42.3327 28.0455L40.0218 36.561H49.9054L52.2164 28.0455L53.1418 24.633L56.5844 11.949L57.5098 8.5365L59.8261 0H49.9424Z" fill="white"/>
</svg>
