<svg width="166" height="26" viewBox="0 0 166 26" fill="none" xmlns="http://www.w3.org/2000/svg">
<path d="M137.068 1.10344L137.386 19.7369H137.227L131.832 1.11036H122.958V24.5717H128.823L128.505 5.30877H128.664L134.446 24.5717H142.933V1.11036L137.068 1.10344ZM25.3634 1.10344L20.9298 24.8138H27.3485L30.5993 3.24761H30.7584L33.9332 24.8138H40.2688L35.9113 1.11036L25.3634 1.10344ZM61.1987 1.10344L58.266 19.1836H58.1069L55.1743 1.11036H45.5117L45.0344 24.8138H50.9827L51.1418 3.48969H51.2179L55.1812 24.8138H61.2056L65.1688 3.48969H65.3279L65.487 24.8138H71.4353L70.882 1.11036L61.1987 1.10344ZM10.9422 18.0769C11.1161 18.6419 11.1423 19.242 11.0183 19.8199C10.8592 20.6084 10.3058 21.4039 8.72192 21.4039C7.21408 21.4039 6.34258 20.5324 6.34258 19.2597V16.9634H0V18.7894C0 24.1014 4.19842 25.6853 8.64583 25.6853C12.9203 25.6853 16.4893 24.1774 17.0427 20.2903C17.3608 18.2291 17.1257 16.8873 17.0427 16.41C15.936 11.4162 6.89592 9.98444 6.25958 7.21086C6.18171 6.79253 6.18171 6.36343 6.25958 5.9451C6.41867 5.14969 6.97892 4.35427 8.40375 4.35427C9.82858 4.35427 10.6171 5.23269 10.6171 6.49844V7.92327H16.5654V6.26327C16.5654 1.11036 11.8898 0.314941 8.56283 0.314941C4.3575 0.314941 0.8715 1.73977 0.235167 5.55086C0.0270069 6.59984 0.0553616 7.68204 0.318167 8.71869C1.26575 13.6295 9.7525 15.0613 10.9422 18.07M88.0768 18.07C88.312 18.6234 88.229 19.3427 88.1529 19.8199C87.9938 20.6084 87.4405 21.4039 85.8566 21.4039C84.3487 21.4039 83.4772 20.5324 83.4772 19.2597V16.9634H77.1347V18.7894C77.1347 24.0184 81.257 25.6023 85.6975 25.6023C89.9789 25.6023 93.4649 24.1774 94.0182 20.2142C94.3364 18.153 94.1012 16.8873 94.0182 16.327C93.0707 11.4162 84.1067 9.90836 83.4772 7.21086C83.3994 6.79253 83.3994 6.36343 83.4772 5.9451C83.6363 5.14969 84.1897 4.35427 85.6214 4.35427C86.9632 4.35427 87.8347 5.23269 87.8347 6.49844V7.92327H93.7001V6.26327C93.7001 1.11036 89.1005 0.314941 85.7736 0.314941C81.5752 0.314941 78.1652 1.66369 77.5289 5.55086C77.3698 6.58144 77.3698 7.52902 77.6119 8.71869C78.5595 13.6295 86.8802 14.9783 88.0768 18.07ZM108.052 21.2448C109.712 21.2448 110.196 20.1381 110.349 19.5018C110.432 19.2597 110.431 18.8654 110.431 18.6303V1.10344H116.449V18.1461C116.449 18.6234 116.449 19.4949 116.38 19.7369C115.979 24.1705 112.493 25.5954 108.128 25.5954C103.771 25.5954 100.285 24.1705 99.8836 19.73C99.8836 19.4949 99.8075 18.6234 99.8075 18.1461V1.10344H105.825V18.6234C105.825 18.9415 105.825 19.2528 105.908 19.4949C105.908 20.1243 106.392 21.2379 108.052 21.2379M157.52 21.0027C159.263 21.0027 159.816 19.896 159.976 19.2528C160.052 19.0176 160.052 18.6234 160.052 18.3813V14.9714H157.596V11.4854H166V17.8279C166 18.3052 166 18.6234 165.924 19.4188C165.523 23.7763 161.795 25.2772 157.596 25.2772C153.398 25.2772 149.67 23.7763 149.275 19.4119C149.193 18.6234 149.192 18.3052 149.192 17.8279V7.84027C149.192 7.44602 149.275 6.65061 149.275 6.24944C149.829 1.81586 153.398 0.391023 157.596 0.391023C161.795 0.391023 165.447 1.81585 165.917 6.25635C166 6.96877 166 7.84027 166 7.84027V8.63569H160.052V7.28694C160.052 7.28694 160.052 6.73361 159.976 6.41544C159.893 5.86211 159.422 4.67244 157.596 4.67244C155.853 4.67244 155.383 5.77911 155.217 6.41544C155.141 6.72669 155.141 7.12786 155.141 7.52211V18.3813C155.141 18.6994 155.141 19.0176 155.217 19.2528C155.217 19.8891 155.853 21.0027 157.52 21.0027Z" fill="white"/>
</svg>
